<?xml version="1.0" standalone="no"?>
<!DOCTYPE svg PUBLIC "-//W3C//DTD SVG 1.1//EN" "http://www.w3.org/Graphics/SVG/1.1/DTD/svg11.dtd" >
<svg xmlns="http://www.w3.org/2000/svg">
<metadata>Generated by IcoMoon</metadata>
<defs>
<font id="tif-icons" horiz-adv-x="512">
<font-face units-per-em="512" ascent="480" descent="-32" />
<missing-glyph horiz-adv-x="512" />
<glyph unicode="&#x20;" d="" horiz-adv-x="256" />
<glyph unicode="&#xe118;" d="M113.778 227.082c-13.274 0-24.652-4.74-33.185-14.222-9.481-9.481-14.222-20.86-14.222-33.185 0-13.274 4.74-24.652 14.222-33.185 9.481-9.481 25.6-13.274 36.029-13.274 10.43 0 21.808 4.74 31.289 13.274 9.482 9.481 14.222 20.86 14.222 33.185 0 13.274-4.74 24.652-14.222 33.185-9.482 9.481-20.859 14.222-34.133 14.222zM425.719 212.86c-9.481 9.481-20.86 14.222-33.185 14.222-13.274 0-24.652-4.741-33.185-14.222-9.481-9.481-14.222-20.86-14.222-33.185 0-13.274 4.74-24.652 14.222-33.185 9.481-9.481 25.6-13.274 36.029-13.274 10.43 0 21.808 4.74 31.289 13.274 9.481 9.481 14.222 20.86 14.222 33.185-1.897 12.326-5.689 23.704-15.171 33.185zM253.155 227.082c-13.274 0-24.652-4.74-33.185-14.222-9.482-9.481-14.222-20.86-14.222-33.185 0-13.274 4.74-24.652 14.222-33.185 9.482-9.481 25.6-13.274 36.030-13.274 10.43 0 21.808 4.74 31.289 13.274 9.481 9.481 14.222 20.86 14.222 33.185 0 13.274-4.74 24.652-14.222 33.185-10.43 9.481-20.86 14.222-34.133 14.222z" />
<glyph unicode="&#xe600;" d="M379.259 318.815l-37.926 37.926v9.481l85.333 28.444-37.926-75.852-9.481 0.001zM274.963 375.704l-9.481 9.481 56.889 66.37v-85.333h-18.963l-28.445 9.482zM388.741 224c0-72.192-60.549-132.741-132.741-132.741s-132.741 60.549-132.741 132.741 60.549 132.741 132.741 132.741 132.741-60.549 132.741-132.741zM192.986 365.359l-12.838 10.345 18.963 75.852 47.407-66.37-9.481-9.481-44.051-10.346zM123.259 318.815h-9.481l-18.963 75.852 70.428-35.849-4.058-11.559-37.926-28.444zM113.778 280.889l-9.481-37.926-9.481-9.481-66.37 47.407 75.852 18.963 9.48-18.963zM104.296 205.037l9.481-47.407-9.481-9.481-75.852 18.963 66.37 47.407 9.482-9.482zM123.259 138.667l37.926-37.926v-9.481l-75.852-37.926 28.444 75.852 9.482 9.481zM227.556 72.296l9.481-9.481-47.407-66.37-9.481 75.852 9.481 9.481 37.926-9.482zM303.407 81.778l18.963-9.481v-75.852l-56.889 56.889 9.481 18.963 28.445 9.481zM388.741 138.667l28.444-85.333-75.852 28.444v18.963l28.444 28.444 18.964 9.482zM388.741 167.111l18.963 47.407 11.245 1.024 55.125-57.912h-75.852l-9.481 9.481zM407.704 242.963l-9.481 47.407 9.481 9.481 75.852-18.963-66.37-47.407-9.482 9.482z" />
<glyph unicode="&#xe601;" d="M309.646 451.565c-92.596 0-167.671-72.619-167.671-165.243 0-38.391 11.985-80.289 32.171-106.581l-130.067-122.065c-7.68-7.699-7.68-20.091 0-27.771l27.705-27.714c7.671-7.671 20.091-7.671 27.733 0l131.451 131.575c20.3-9.7 52.907-15.151 78.668-15.151 92.625 0 164.020 75.084 164.020 167.708s-71.385 165.242-164.010 165.242zM307.503 185.126c-54.831 0-99.281 44.468-99.281 99.281 0 54.841 44.449 99.3 99.281 99.3 54.841 0 99.319-44.459 99.319-99.3-0.010-54.803-44.478-99.281-99.319-99.281z" />
<glyph unicode="&#xe602;" d="M478.805 89.628h-445.61v250.587h111.038c0 15.256 2.958 29.658 8.884 43.207 5.926 13.54 13.938 25.353 24.064 35.442 10.098 10.088 21.94 18.1 35.527 24.007 13.558 5.906 27.998 8.855 43.292 8.855s29.724-2.949 43.302-8.856c13.568-5.907 25.41-13.919 35.527-24.007 10.107-10.088 18.138-21.912 24.055-35.442 5.926-13.549 8.894-27.942 8.894-43.207h111.028l-0.001-250.586zM70.21-3.413c-10.363 0-19.134 3.698-26.273 11.084-7.159 7.377-10.743 15.986-10.743 25.847v33.773h445.611v-33.773c0-9.861-3.584-18.46-10.733-25.847-7.149-7.386-15.91-11.084-26.273-11.084h-371.589zM322.92 338.688c0 18.688-6.476 34.484-19.399 47.398-12.952 12.895-28.776 19.361-47.521 19.361-18.726 0-34.56-6.466-47.512-19.361-12.942-12.914-19.399-28.71-19.399-47.398h133.831z" />
<glyph unicode="&#xe603;" d="M256 451.821c-125.535 0-227.679-102.125-227.679-227.679 0-125.535 102.135-227.669 227.679-227.669 125.535 0 227.66 102.125 227.66 227.669 0.009 125.554-102.125 227.679-227.66 227.679zM256.398 386.039c16.318 0 29.601-13.236 29.601-29.573 0-16.346-13.274-30.549-29.601-30.549-16.346 0-29.563 14.203-29.563 30.549 0 16.327 13.227 29.573 29.563 29.573zM364.923 360.382l-61.023-79.54-8.495-76.696 67.3-119.154c4.153-7.31 1.593-16.593-5.708-20.745-7.31-4.153-16.593-1.602-20.745 5.727l-76.658 131.821h-9.491l-76.648-131.821c-4.153-7.32-13.445-9.87-20.745-5.727s-9.88 13.426-5.727 20.745l69.395 119.343-7.329 75.283-61.971 80.763c-5.111 6.665-3.859 16.213 2.816 21.333 6.665 5.111 16.223 3.849 21.333-2.816l51.039-66.541c5.67 4.238 12.62 6.836 20.233 6.836h27.847c7.386 0 14.165-2.408 19.74-6.409l50.726 66.114c5.111 6.665 14.649 7.927 21.333 2.816 6.647-5.119 7.889-14.667 2.778-21.332z" />
<glyph unicode="&#xe604;" d="M369.778 24.946c-0.521 0-56.889 0-56.889 0l-28.444 28.444v199.111l199.111 199.111h-56.889l-28.444-28.444h-284.445l-28.444 28.444h-56.89l199.111-199.111v-199.111l-28.444-28.444h-56.889c0 0-28.444-0.436-28.444-28.444 0-0.237 284.444 0 284.444 0s-0.626 28.444-28.444 28.444zM142.222 394.724h227.556l-113.778-113.778-113.778 113.778z" />
<glyph unicode="&#xe605;" d="M294.732 451.356l-251.771-251.704c0 0-32.749-33.327 0.142-66.37 21.22-21.324 122.747-122.396 122.747-122.396s33.157-32.322 65.384 0.057c32.256 32.416 252.322 252.253 252.322 252.253v188.274l-188.824-0.114zM414.53 360.287c-12.696 0-23.021 10.354-23.021 23.135 0 12.762 10.325 23.106 23.021 23.106 12.686 0 23.021-10.344 23.021-23.106-0.009-12.781-10.334-23.135-23.021-23.135z" />
<glyph unicode="&#xe606;" d="M435.745 173.842l-4.788 22.621-78.744-16.623-70.957 46.094 70.957 45.981 78.81-16.746 4.806 22.602-56.161 11.93 62.462 40.474-25.223 38.809-61.288-39.707 11.703 54.921-22.63 4.815-16.529-77.514-66.264-42.943v84.184l56.558 56.463-16.358 16.329-40.19-40.115v67.59h-46.331v-68.195l-40.191 40.114-16.358-16.329 56.558-56.463v-83.521l-66.113 42.962-16.462 77.599-22.63-4.778 11.637-54.987-61.26 39.812-25.279-38.79 62.357-40.531-56.113-11.845 4.788-22.603 78.753 16.623 70.948-46.103-70.957-45.971-78.81 16.746-4.816-22.611 56.17-11.921-62.471-40.483 25.233-38.809 61.27 39.707-11.703-54.921 22.64-4.806 16.529 77.505 66.264 42.943v-84.174l-56.558-56.472 16.358-16.329 40.19 40.124v-67.608h46.33v68.195l40.19-40.124 16.358 16.329-56.558 56.463v83.531l66.113-42.962 16.443-77.589 22.64 4.769-11.647 54.997 61.269-39.812 25.279 38.79-62.367 40.512 56.142 11.854zM238.738 201.516c-13.511 0-24.476 10.937-24.476 24.438s10.965 24.419 24.476 24.419c13.519 0 24.476-10.918 24.476-24.419s-10.956-24.438-24.476-24.438z" />
<glyph unicode="&#xe607;" d="M426.667 67.707h-132.741v-66.37h-75.852v66.37h-132.741l94.815 113.778h-85.333l104.296 94.815h-56.889l94.815 104.296h-37.926l56.889 66.37 56.889-66.37h-37.926l94.815-104.296h-56.889l104.296-94.815h-85.333l94.815-113.778z" />
<glyph unicode="&#xe608;" d="M256-3.366c-125.431 0-227.556 102.116-227.556 227.556 0 125.44 102.116 227.479 227.547 227.479 125.449 0 227.565-102.039 227.565-227.489 0-125.44-102.097-227.546-227.556-227.546zM256 394.847c-95.479 0-170.667-75.198-170.667-170.667 0-95.479 75.188-170.667 170.667-170.667 95.488 0 170.667 75.188 170.667 170.667 0 95.469-75.179 170.667-170.667 170.667zM161.185 129.375l47.407 132.741 142.222 56.889-56.889-151.704-132.74-37.926zM227.556 233.662l-18.963-56.889 56.889 18.963-37.926 37.926z" />
<glyph unicode="&#xe609;" d="M446.862 37.343h-266.723c-20.309 0-33.308 12.364-33.308 32v36.248h-40.695c-19.475 0-32.028 13.473-33.308 32-19.106 1.251-44.384 8.922-44.384 27.752v181.324c0 19.645 16.394 32 36.694 32h271.607c19.503 0 35.442-17.010 36.693-35.556 19.162-1.233 26.169-9.595 26.169-28.444l-0.085-37.86h50.726c20.338 0 33.308-12.345 33.308-32.009v-171.89c0-19.674-16.394-35.565-36.694-35.565zM382.303 327.704h-286.028v-187.971l50.555-0.559v105.614c0 19.665 12.999 32.009 33.308 32.009h202.164l0.001 50.907zM450.247 242.124h-270.108l-0.531-170.107h270.639v170.107zM283.496 130.811c7.585-3.916 21.248-6.969 32.996-6.969 10.335 0 14.364 3.224 14.364 10.060 0 6.447-10.278 12.051-23.666 16.308-19.333 6.135-28.89 18.366-28.89 34.92 0 17.778 10.581 26.359 29.051 26.662l-1.413 17.541h22.225l1.024-17.541c12.136-0.531 18.47-3.138 24.443-5.888l-5.253-19.276c-4.693 1.887-12.999 5.803-26.027 5.803-11.748 0-14.668-4.532-14.668-9.282 0-5.641 5.442-9.5 20.802-14.971 21.532-7.168 32.948-19.503 32.948-34.835 0-15.199-11.501-23.723-32.303-27.108l-0.977-15.559h-22.225l1.365 15.559c-12.108 0.503-22.357 0.863-29.25 4.608l5.454 19.968z" />
<glyph unicode="&#xe60a;" d="M366.393 386.714h-220.814l-117.135-142.099 227.546-199.026 227.566 199.026-117.163 142.099zM189.63 263.578l66.37 75.852 66.37-75.852h-132.74zM322.37 235.134l-66.38-132.855-66.36 132.855h132.74zM151.704 235.134l47.407-94.815-104.296 94.815h56.889zM360.296 235.134h56.889l-104.296-94.815 47.407 94.815zM417.185 263.578h-56.889l-66.37 75.852h56.889l66.37-75.852zM161.185 339.43h56.889l-56.889-75.852h-66.37l66.37 75.852z" />
<glyph unicode="&#xe60b;" d="M464.649 394.818c4.542 0 8.183-1.015 10.961-3.025 2.759-2.020 4.646-4.286 5.67-6.808 1.508-2.541 2.266-5.566 2.266-9.083v-303.502c0-5.044-1.015-8.837-3.025-11.349-2.020-2.532-4.286-4.286-6.798-5.3-2.541-1.508-5.556-2.266-9.074-2.266h-417.298c-5.044 0-8.827 0.872-11.34 2.645-2.532 1.764-4.286 3.897-5.291 6.438-1.517 2.522-2.266 5.793-2.266 9.832v303.502c0 4.542 0.872 8.192 2.645 10.97 1.764 2.769 3.897 4.656 6.429 5.671 2.522 1.508 5.784 2.266 9.832 2.266h417.289zM436.148 347.411h-360.296v-246.519h360.296v246.519zM113.873 138.714c5.67 8.429 11.947 16.223 18.84 23.4 5.67 5.888 12.165 11.378 19.456 16.431 7.301 5.054 14.99 7.595 23.106 7.595 7.699 0 13.777-0.853 18.233-2.541 4.456-1.688 8.514-3.47 12.165-5.367 3.641-1.896 7.689-3.698 12.155-5.376 4.456-1.688 10.534-2.532 18.233-2.532 7.699 0 14.592 3.262 20.67 9.804 6.087 6.523 12.459 13.796 19.153 21.817 6.684 8.002 14.071 15.275 22.196 21.817 8.097 6.523 18.015 9.804 29.781 9.804 11.349 0 20.869-4.959 28.577-14.857 7.699-9.908 13.985-20.764 18.849-32.569 5.67-13.919 10.117-29.724 13.369-47.426h-274.783zM218.197 271.455c0-13.132-4.665-24.348-13.985-33.688-9.33-9.33-20.594-13.682-31.128-13.682-10.543 0-26.833 4.352-36.143 13.682-9.33 9.33-13.985 20.556-13.985 33.688 0 13.113 4.655 24.329 13.985 33.678 9.32 9.33 20.527 14.004 33.64 14.004 13.103 0 24.311-4.665 33.64-14.004 9.311-9.349 13.976-20.565 13.976-33.678z" />
<glyph unicode="&#xe60c;" d="M483.556 405.63l-199.112-199.111 56.889-56.889 56.889 56.889c57.96-1.47 56.889-56.889 56.889-56.889l-56.889-56.889h-56.889l-85.333 85.333-85.333-85.333h-56.889l-56.889 56.889c0 0 0.721 55.761 56.889 56.889l56.889-56.889 56.889 56.889-199.112 199.111 28.444 28.444 199.111-199.111 199.112 199.111 28.445-28.444zM256 92.741c23.656 0 42.837-19.105 42.837-42.667s-19.181-42.667-42.837-42.667-42.837 19.105-42.837 42.667 19.181 42.667 42.837 42.667z" />
<glyph unicode="&#xe60d;" d="M440.889-3.556h-369.778c-26.027 0-42.667 16.441-42.667 42.667v369.768c0 26.217 16.64 42.677 42.667 42.677h369.778c26.055 0 42.667-16.46 42.667-42.677v-369.768c0-26.226-16.612-42.667-42.667-42.667zM111.531 420.096c-15.692 0-28.416-12.734-28.416-28.444 0-15.663 12.724-28.435 28.416-28.435 15.72 0 28.444 12.762 28.444 28.435 0 15.71-12.724 28.444-28.444 28.444zM398.222 423.083c-15.72 0-28.444-12.734-28.444-28.435 0-15.682 12.724-28.444 28.444-28.444 15.692 0 28.444 12.762 28.444 28.444 0.001 15.701-12.752 28.435-28.444 28.435zM435.475 337.768h-358.95v-293.262h358.94v293.262zM196.162 307.503h24.557v-48.156h71.329v48.156h23.637v-48.156h48.081v-23.789h-48.081v-95.668h48.081v-23.078h-48.081v-48.83h-24.415v48.83h-70.552v-48.981h-24.557v48.981h-47.948v23.078h47.948v95.668h-48.697v23.789h48.697l0.001 48.156zM220.719 139.89h70.552v95.668h-70.552v-95.668z" />
<glyph unicode="&#xe60e;" d="M469.163 394.363c-18.812 23.088-113.57 102.694-213.163 20.016-78.82 72.96-177.56 23.362-213.163-20.016v-369.493l28.416-28.426c3.337 3.138 99.679 82.546 170.534 0h28.425c68.997 79.806 162.731 7.386 170.534 0l28.416 28.425 0.001 369.494zM99.679 53.295v312.643c0.114-0.92 67.48 82.546 141.113 1.138 0 0-0.967 1.858 0.996-1.138v-312.642c-65.423 48.327-102.116 21.845-142.109-0.001zM412.321 53.295c-39.974 21.817-75.169 47.521-142.108 0v312.643c2.029 2.769 0.948 1.138 0.948 1.138 73.946 76.297 120.073 18.593 141.17-1.138v-312.643z" />
<glyph unicode="&#xe60f;" d="M464.725 318.967h-417.185c-5.547 0-17.996 8.211-19.172 13.852-1.242 5.632 4.646 12.184 9.69 14.592l218.074 104.296 208.593-104.296c5.035-2.408 20.243-8.96 19.020-14.592-1.157-5.642-13.482-13.852-19.020-13.852zM417.318 300.004v-208.593h66.37v-37.926h-455.111v37.926h66.37v208.593h47.407v-208.593h47.407v208.593h47.407v-208.593h37.926v208.593h47.407v-208.593h47.407v208.593h47.41zM483.688 34.522v-37.926h-455.329l0.218 37.926h455.111z" />
<glyph unicode="&#xe610;" d="M79.426 58.861h354.095v50.574h-354.095v-50.574zM79.426 185.287h354.095l0.001 50.565h-354.096v-50.565zM79.426 362.268v-50.565h354.095v50.565h-354.095z" />
<glyph unicode="&#xe611;" d="M306.565 9.093h176.991v177h-176.991v-177zM306.565 438.907v-176.991h176.991v176.991h-176.991zM28.444 9.093h176.991v177h-176.991v-177zM28.444 261.916h176.991v176.991h-176.991v-176.991z" />
<glyph unicode="&#xe612;" d="M306.565 9.102h176.991v176.991h-176.991v-176.991zM28.444 135.5h176.991v25.287h-176.991v-25.287zM306.565 438.907v-176.991h176.991v176.991h-176.991zM28.444 388.343h176.991v25.277h-176.991v-25.277zM28.444 34.361h176.991v25.316l-176.991-0.001v-25.315zM28.444 287.204h176.991v25.287h-176.991v-25.287z" />
<glyph unicode="&#xe613;" d="M236.838 451.755v-151.599c0-38.087-37.822-38.267-37.926-38.125v-246.139c0-18.792-18.963-19.342-18.963-19.342h-18.963c-19.209 0-18.963 19.342-18.963 19.342v246.139c-38.068 0-37.528 32.484-37.528 31.953v157.353l28.046 0.322v-142.222l28.444 9.671 0.001 132.647h18.963v-132.646l28.444-9.671v142.222l28.445 0.095zM350.616 451.755c56.424 0 56.889-56.851 56.889-56.851v-379.392c0-18.688-18.963-18.963-18.963-18.963h-37.926c-18.963 0-18.963 19.342-18.963 19.342v189.506h-37.926v189.497c0 56.624 56.955 56.861 56.889 56.861z" />
<glyph unicode="&#xe614;" d="M455.111 209.929v-56.889c0 0-0.484-28.444-28.444-28.444-1.811 0-56.889-28.444-56.889-28.444v-28.444h-50.565l-25.287 26.073-66.37 2.37-34.769-28.444h-50.565v28.444c0 0-55.381 28.444-56.889 28.444-24.813 0-28.444 28.444-28.444 28.444v56.889c0 0-28.444 0.806-28.444 28.444s28.444 28.444 28.444 28.444 0.721 25.989 0 28.444c0 36.361 28.444 56.889 28.444 56.889s60.388 28.444 170.667 28.444 170.667-28.444 170.667-28.444 28.444-20.527 28.444-56.889c-0.721-2.456 0-28.444 0-28.444s28.444-0.806 28.444-28.444-28.444-28.443-28.444-28.443zM369.778 323.707c-5.528 0-223.554 0-227.556 0-57.647 0-56.889-85.333-56.889-85.333v-56.889c0 0 27.857-27.904 28.444-28.444 40.192-36.788 85.333 0 85.333 0v56.889l56.889 56.889 56.889-56.889v-56.889c0 0 41.813-44.866 85.333 0 13.786 14.222 24.51 24.386 28.444 28.444v56.889c0.002 0-3.383 85.333-56.887 85.333z" />
<glyph unicode="&#xe615;" d="M381.099 230.078c25.154 0 45.559-19.759 45.559-44.117 0-21.125-15.341-38.722-35.793-43.065 0-0.351 0.057-0.702 0.057-1.062 0-24.055-6.827-46.516-18.546-65.877 11.188-8.050 18.546-20.821 18.546-35.356 0-24.377-20.395-44.127-45.559-44.127-17.55 0-32.616 9.709-40.23 23.78-15.237-5.784-31.791-9.064-49.143-9.064-17.076 0-33.356 3.205-48.403 8.799-7.652-13.928-22.623-23.505-40.040-23.505-25.173 0-45.577 19.75-45.577 44.127 0 14.26 7.092 26.804 17.939 34.882-11.89 19.456-18.849 42.098-18.849 66.351 0 0.36 0.057 0.711 0.057 1.081-20.452 4.313-35.784 21.911-35.784 43.026 0 24.358 20.395 44.117 45.577 44.117 7.595 0 14.658-1.972 20.954-5.158 4.124 4.836 8.713 9.282 13.502 13.502-21.305 21.732-34.475 51.010-34.475 83.342 0 17.579 3.954 34.219 10.894 49.294-11.966 7.945-19.816 21.248-19.816 36.371 0 24.358 20.395 44.117 45.577 44.117 15.597 0 29.345-7.623 37.556-19.191 15.55 6.732 32.759 10.543 50.887 10.543 18.394 0 35.812-3.954 51.56-10.866 8.173 11.767 22.054 19.513 37.803 19.513 25.154 0 45.559-19.759 45.559-44.117 0-15.398-8.164-28.928-20.508-36.817 6.827-14.952 10.686-31.46 10.686-48.849 0-32.332-13.17-61.611-34.484-83.342 4.807-4.21 9.387-8.666 13.521-13.502 6.295 3.197 13.369 5.17 20.973 5.17zM199.111 404.11c-15.796 0-28.587-12.715-28.587-28.407 0-15.73 12.791-28.454 28.587-28.454 15.768 0 28.558 12.724 28.558 28.454 0.010 15.693-12.79 28.407-28.558 28.407zM180.3 285.573c0-39.291 31.782-71.054 75.719-71.054 43.928 0 75.956 31.772 75.956 71.054 0 39.263-32.047 71.699-75.966 71.699-43.946 0-75.709-32.436-75.709-71.699zM312.898 404.11c-15.806 0-28.587-12.715-28.587-28.407 0-15.73 12.781-28.454 28.587-28.454 15.768 0 28.568 12.724 28.568 28.454 0 15.693-12.8 28.407-28.568 28.407zM256.152 280.823c-15.73 0-28.473 12.724-28.473 28.435 0 15.682 12.743 28.407 28.473 28.407 15.701 0 28.454-12.724 28.454-28.407 0-15.711-12.753-28.435-28.454-28.435z" />
<glyph unicode="&#xe616;" d="M256-3.556c-125.468 0-227.556 102.088-227.556 227.556s102.088 227.556 227.556 227.556 227.556-102.087 227.556-227.556-102.088-227.556-227.556-227.556zM256 426.885c-111.872 0-202.875-91.004-202.875-202.885s91.003-202.885 202.875-202.885 202.885 91.004 202.885 202.885-91.013 202.885-202.885 202.885zM392.742 165.025c-14.763-24.054-57.932-109.378-136.742-109.378-80.28 0-122.994 87.429-136.732 110.715-9.017-3.944-17.863-5.433-24.055-5.433l-0.085 24.671c2.683 0.038 26.472 1.090 33.612 25.173l23.666-7.007c-2.844-9.605-7.462-17.124-12.914-23.087 9.918-17.55 46.298-71.917 116.527-71.917 67.29 0 104.647 51.039 116.3 70.191-7.964 9.349-10.904 20.376-11.036 28.113l24.671 0.578c0.171-3.688 2.494-22.044 31.763-22.044v-24.671c-9.9 0-18.101 1.565-24.975 4.096zM341.504 252.539c-15.853 0-28.7 19.020-28.7 42.487 0 23.467 12.847 42.487 28.7 42.487s28.7-19.029 28.7-42.487c0-23.467-12.856-42.487-28.7-42.487zM170.468 252.539c-15.616 0-28.274 19.020-28.274 42.487 0 23.467 12.648 42.487 28.274 42.487s28.274-19.029 28.274-42.487c0.009-23.467-12.649-42.487-28.274-42.487z" />
<glyph unicode="&#xe617;" d="M426.591 451.726h-53.542v-45.928h-46.355v45.928h-46.336v-45.928h-46.345l-0.001 45.928h-46.345v-45.928h-46.345l-0.001 45.928h-55.912l9.557-117.286h64.588l-18.223-337.863h229.348l-18.223 337.863h64.588l9.547 117.286z" />
<glyph unicode="&#xe618;" d="M465.787 356.731h-67.575l0.001 48.602c0 25.524 0.019 46.223 0.019 46.223h-284.444c0 0 0-20.698 0-46.222v-48.602l-67.575-0.001c-25.505 0-46.194-20.67-46.194-46.175v-201.51c0-25.515 20.689-46.203 46.194-46.203h67.575v-20.186c0-25.496 20.67-46.203 46.175-46.203h192.038c25.515 0 46.203 20.708 46.203 46.203v20.186h67.575c25.524 0 46.203 20.689 46.203 46.203l-0.001 201.501c0.010 25.515-20.67 46.184-46.194 46.184zM113.787 110.222h-66.37v199.111h66.37v-199.111zM350.824 43.852h-189.63v18.963h189.63v-18.963zM350.824 138.667h-189.63v47.407h189.63v-47.407zM350.824 224h-189.63v85.333h189.63v-85.333zM350.824 356.731h-189.63l0.001 47.417h189.63l-0.001-47.417zM464.602 110.222h-66.389v199.111h66.389v-199.111zM445.639 290.37h-28.444v-28.444h28.444v28.444z" />
<glyph unicode="&#xe619;" d="M456.428 266.019c-13.925 13.48-31.241 22.334-50.25 22.334-22.022 0-45.206-9.816-61.3-32.861-9.511 13.679-21.849 22.579-34.785 27.663 2.21 8.131 2.615 16.892 2.615 25.785 0 22.308-8.536 37.473-22.779 51.232-14.21 13.752-31.851 22.779-51.232 22.779-22.48 0-46.108-10.009-62.528-33.511-16.334 23.502-40.845 33.511-62.714 33.511-19.387 0-37.029-9.020-51.239-22.779-14.23-13.739-22.779-28.904-22.779-51.232 0-12.027 0.525-24.019 5.688-34.168 10.255-20.303 28.367-40.082 47.084-55.208 15.963-12.882 83.86-64.334 83.86-64.334s18.909 14.323 39.132 29.714c0.379-0.882 0.737-1.792 1.181-2.642 10.042-19.911 27.816-39.318 46.167-54.132 15.644-12.651 82.234-63.106 82.234-63.106s66.709 50.529 82.453 62.9c18.478 14.529 36.132 34.055 45.942 54.344 4.885 10.108 5.582 21.704 5.582 33.484-0.007 21.863-8.382 36.743-22.334 50.223zM113.076 245.358c-17.104 13.832-31.075 30.007-38.383 44.476-2.071 4.082-2.071 14.237-2.071 19.108 0 11.317 3.186 18.226 12.663 27.392 6.332 6.119 16.361 13.427 28.162 13.427 6.637 0 23.376-1.878 35.468-19.261l27.179-39.113 27.272 39.046c11.755 16.812 27.179 19.327 35.322 19.327 11.794 0 21.823-7.314 28.174-13.453 9.458-9.139 12.644-16.036 12.644-27.365 0-7.314-0.286-15.372-2.376-19.719-0.219-0.452-0.511-0.936-0.743-1.387-3.584-7.029-8.748-14.442-15.007-21.677-0.093-0.106-0.192-0.219-0.286-0.312-10.268-11.137-31.619-26.973-49.917-42.259v0c-11.734-8.947-24.69-18.796-35.103-26.701-21.219 16.142-53.017 40.42-62.999 48.471z" />
<glyph unicode="&#xe61a;" d="M256.161 357.831c27.335 39.14 66.712 55.799 104.135 55.799 32.275 0 61.687-15.028 85.333-37.926 23.723-22.898 37.926-48.166 37.926-85.333 0-20.015-1.166-39.718-9.481-56.889-16.649-34.437-46.63-67.584-78.023-92.293-26.757-20.983-140.051-106.819-140.051-106.819s-113.076 85.684-139.662 107.169c-31.166 25.193-61.345 58.141-78.412 91.942-8.609 16.905-9.481 36.873-9.481 56.889 0 37.196 14.222 62.445 37.926 85.333 23.666 22.898 53.058 37.926 85.333 37.926 36.418 0.001 77.236-16.658 104.457-55.798z" />
<glyph unicode="&#xe61b;" d="M360.296 356.741c19.124 0 35.432-11.909 45.824-21.969 15.36-14.829 20.547-26.027 20.547-44.402 0-11.994-0.455-25.192-3.802-32.123-11.52-23.817-34.693-50.868-61.905-72.296-16.811-13.189-69.395-53.182-104.922-80.156-35.328 26.871-87.448 66.664-103.927 79.986-28.302 22.879-51.409 49.617-63.479 73.519-3.299 6.447-3.299 23.703-3.299 31.070 0 18.366 5.186 29.573 20.594 44.449 10.344 10.004 26.672 21.922 45.777 21.922 10.799 0 38.049-3.063 57.752-31.393l46.601-67.015 46.734 66.92c19.143 27.392 44.25 31.488 57.505 31.488zM360.296 413.63c-37.423 0-76.8-16.659-104.135-55.799-27.221 39.14-68.039 55.799-104.457 55.799-32.275 0-61.668-15.028-85.333-37.926-23.704-22.888-37.926-48.137-37.926-85.333 0-20.015 0.872-39.983 9.481-56.889 17.067-33.801 47.237-66.75 78.412-91.942 26.586-21.485 139.662-107.17 139.662-107.17s113.294 85.836 140.051 106.818c31.393 24.709 61.374 57.857 78.023 92.293 8.315 17.171 9.481 36.873 9.481 56.889 0 37.167-14.203 62.436-37.926 85.333-23.646 22.898-53.058 37.927-85.333 37.927v0z" />
<glyph unicode="&#xe61c;" d="M378.984 299.852c-23.903 0-44.98 11.207-58.927 28.369l-117.931-72.742c4.409-9.614 7.016-20.205 7.016-31.479 0-7.68-1.498-14.924-3.593-21.921l121.24-74.799c13.653 12.847 31.953 20.869 52.186 20.869 42.060 0 76.117-33.944 76.117-75.871 0-41.889-34.067-75.833-76.117-75.833-42.069 0-76.117 33.944-76.117 75.833 0 9.036 1.849 17.626 4.769 25.647l-119.647 73.794c-13.853-14.478-33.299-23.571-54.964-23.571-42.041 0-76.117 33.963-76.117 75.852 0 41.889 34.086 75.852 76.117 75.852 17.911 0 34.171-6.409 47.17-16.754l124.388 76.753c-1.1 5.111-1.716 10.392-1.716 15.834 0 41.918 34.057 75.852 76.117 75.852 42.060 0 76.117-33.934 76.117-75.852 0.010-41.88-34.057-75.833-76.108-75.833z" />
<glyph unicode="&#xe61d;" d="M255.924-3.575c0 0-165.85 210.404-165.85 293.945 0 90.074 76.307 161.204 165.679 161.204 89.354 0.001 166.173-71.13 166.173-161.204 0-86.329-166.002-293.945-166.002-293.945zM255.991 385.195c-23.58 0-42.705-19.096-42.705-42.638s19.124-42.638 42.705-42.638 42.705 19.096 42.705 42.638-19.125 42.638-42.705 42.638z" />
<glyph unicode="&#xe61e;" d="M328.837 181.829c0-33.773-27.373-61.165-61.146-61.165s-61.156 27.392-61.156 61.165 27.382 61.156 61.156 61.156 61.146-27.382 61.146-61.156zM482.37 309.231v-248.889c0-15.711-12.743-28.445-28.445-28.445h-401.778c-15.711 0-28.445 12.733-28.445 28.445v248.889c0 15.711 12.734 28.445 28.445 28.445h26.472v33.972h75.453v-33.972h299.852c15.702 0 28.445-12.733 28.445-28.445zM371.295 181.829c0 57.212-46.393 103.623-103.613 103.623-57.239 0-103.604-46.412-103.604-103.623 0-57.221 46.364-103.623 103.604-103.623 57.23 0 103.613 46.403 103.613 103.623z" />
</font>
</defs>
</svg>
